<svg width="41.000000" height="56.000000" viewBox="0 0 41 56" fill="none" xmlns="http://www.w3.org/2000/svg" xmlns:xlink="http://www.w3.org/1999/xlink">
	<desc>
			Created with Pixso.
	</desc>
	<defs/>
	<path id="Vector" d="M34.78 0C35.42 0.35 35.72 0.91 35.84 1.65C36 2.59 36.22 3.51 36.36 4.44C36.43 4.79 36.56 4.87 36.86 4.86C37.5 4.84 38.14 4.85 38.77 4.86C40.16 4.88 40.95 5.73 40.97 7.21C40.98 8.26 41 9.33 40.97 10.38C40.95 11.87 40.16 12.68 38.76 12.7C38.01 12.7 38.01 12.7 37.88 13.54C37.74 14.54 37.6 15.56 37.5 16.57C37.47 16.73 37.56 16.99 37.68 17.1C38.21 17.59 38.38 18.21 38.28 18.94C37.26 26.59 36.23 34.24 35.21 41.87C35 43.41 34.8 44.95 34.6 46.5C34.51 47.3 34.19 47.91 33.47 48.27C33.34 48.34 33.22 48.58 33.19 48.76C33.01 49.96 32.88 51.17 32.68 52.37C32.43 53.94 31.3 55 29.81 55C23.26 55.01 16.73 55.01 10.18 55C8.67 55 7.54 53.91 7.3 52.32C7.11 51.12 6.98 49.91 6.78 48.71C6.76 48.54 6.61 48.33 6.47 48.25C5.84 47.93 5.5 47.38 5.4 46.67C4.88 42.84 4.38 39.02 3.87 35.19C3.28 30.8 2.7 26.42 2.12 22.02C1.97 20.96 1.81 19.91 1.69 18.84C1.61 18.16 1.81 17.58 2.31 17.11C2.43 17 2.52 16.75 2.51 16.58C2.37 15.43 2.2 14.28 2.07 13.13C2.03 12.81 1.94 12.68 1.63 12.7C1.36 12.73 1.1 12.72 0.83 12.69C-0.11 12.61 -0.91 11.82 -0.94 10.83C-0.99 9.48 -0.99 8.14 -0.94 6.81C-0.91 5.84 -0.22 5.05 0.71 4.95C1.46 4.84 2.26 4.86 3.04 4.86C3.38 4.86 3.54 4.79 3.6 4.39C3.75 3.47 3.98 2.57 4.12 1.65C4.25 0.93 4.55 0.36 5.17 0C15.05 0 24.92 0 34.78 0ZM31.7 48.41C31.46 48.41 31.27 48.41 31.09 48.41C29.38 48.41 27.66 48.41 25.95 48.41C25.77 48.41 25.59 48.4 25.4 48.36C25 48.28 24.8 47.99 24.81 47.55C24.83 47.13 25.06 46.86 25.48 46.81C25.66 46.79 25.84 46.79 26.02 46.79C28.17 46.79 30.32 46.78 32.46 46.79C32.84 46.79 33.02 46.68 33.08 46.23C33.56 42.56 34.07 38.9 34.55 35.24C35.28 29.78 36 24.34 36.74 18.89C36.81 18.39 36.67 18.26 36.22 18.26C25.38 18.27 14.53 18.27 3.69 18.26C3.22 18.26 3.11 18.42 3.19 18.9C3.76 23.04 4.29 27.19 4.85 31.33C5.51 36.23 6.17 41.14 6.82 46.04C6.92 46.79 6.94 46.79 7.67 46.79C12.29 46.79 16.91 46.79 21.53 46.79C21.73 46.79 21.93 46.79 22.13 46.82C22.52 46.89 22.73 47.16 22.75 47.55C22.78 47.95 22.58 48.25 22.21 48.35C22.01 48.4 21.77 48.41 21.54 48.41C17.32 48.41 13.12 48.41 8.9 48.41C8.71 48.41 8.51 48.41 8.29 48.41C8.38 49.02 8.44 49.52 8.51 50.03C8.58 50.54 8.66 51.06 8.72 51.57C8.88 52.93 9.35 53.37 10.63 53.37C15.92 53.37 21.23 53.37 26.53 53.37C27.58 53.37 28.61 53.39 29.66 53.37C30.45 53.36 31.01 53 31.14 52.28C31.36 51.02 31.5 49.75 31.7 48.41ZM34.91 4.86C34.72 3.9 34.53 3.02 34.4 2.13C34.32 1.65 34.17 1.5 33.69 1.5C24.55 1.51 15.43 1.5 6.29 1.5C6.19 1.5 6.07 1.46 5.98 1.51C5.87 1.58 5.69 1.69 5.67 1.81C5.45 2.8 5.27 3.8 5.06 4.86C5.59 4.86 6.07 4.86 6.55 4.86C6.99 4.86 7.43 4.85 7.85 4.9C8.28 4.95 8.52 5.24 8.5 5.7C8.5 6.17 8.24 6.41 7.82 6.46C7.65 6.47 7.48 6.47 7.31 6.47C5.31 6.47 3.31 6.47 1.32 6.47C0.65 6.47 0.51 6.62 0.51 7.32C0.51 8.23 0.51 9.15 0.51 10.05C0.51 11.03 0.55 11.08 1.49 11.08C13.82 11.08 26.17 11.08 38.5 11.08C38.6 11.08 38.71 11.08 38.81 11.08C39.28 11.11 39.48 10.85 39.48 10.37C39.46 9.44 39.48 8.5 39.48 7.57C39.48 6.54 39.42 6.47 38.46 6.47C29.6 6.47 20.72 6.47 11.86 6.47C11.65 6.47 11.43 6.47 11.21 6.45C10.82 6.4 10.6 6.12 10.58 5.73C10.54 5.33 10.72 5.02 11.1 4.92C11.33 4.86 11.56 4.85 11.79 4.85C19.27 4.85 26.73 4.85 34.2 4.85C34.42 4.86 34.64 4.86 34.91 4.86ZM4.04 16.6C14.72 16.6 25.32 16.6 35.94 16.6C36.11 15.29 36.28 14.02 36.45 12.74C25.45 12.74 14.51 12.74 3.53 12.74C3.7 14.06 3.87 15.33 4.04 16.6Z" fill="#000000" fill-opacity="1.000000" fill-rule="nonzero"/>
</svg>
