<svg width="39.000000" height="49.000000" viewBox="0 0 39 49" fill="none" xmlns="http://www.w3.org/2000/svg" xmlns:xlink="http://www.w3.org/1999/xlink">
	<desc>
			Created with Pixso.
	</desc>
	<defs/>
	<rect id="фрейм 1" width="12.054604" height="9.628599" transform="translate(7.889893 2.263916)" fill="#FFFFFF" fill-opacity="0"/>
	<path id="Vector" d="M13.91 2.26C15.27 2.26 16.64 2.26 18 2.26C19.25 2.26 19.94 2.96 19.94 4.19C19.94 6.12 19.94 8.05 19.94 9.98C19.94 11.2 19.24 11.89 18.03 11.89C15.28 11.89 12.54 11.89 9.8 11.89C8.58 11.89 7.9 11.2 7.88 9.98C7.88 8.04 7.88 6.09 7.88 4.15C7.88 2.97 8.58 2.28 9.77 2.26C11.15 2.25 12.53 2.26 13.91 2.26ZM13.86 10.35C15.21 10.35 16.56 10.33 17.91 10.36C18.28 10.36 18.41 10.25 18.41 9.86C18.4 8.02 18.4 6.17 18.41 4.33C18.41 3.93 18.3 3.79 17.89 3.79C15.24 3.81 12.58 3.81 9.92 3.79C9.55 3.79 9.41 3.9 9.41 4.29C9.42 6.14 9.42 7.98 9.41 9.82C9.41 10.22 9.51 10.36 9.93 10.36C11.24 10.33 12.55 10.35 13.86 10.35Z" fill="#000000" fill-opacity="1.000000" fill-rule="nonzero"/>
	<path id="Vector" d="M5.83 48.68C5.77 48.66 5.71 48.61 5.65 48.6C4.19 48.17 3.4 47.24 3.4 45.88C3.39 43.35 3.4 40.84 3.4 38.32C3.4 33.17 3.4 28.02 3.4 22.87C3.4 22.69 3.4 22.49 3.4 22.29C2.9 22.21 2.45 22.17 2 22.07C0.32 21.73 -0.55 20.01 0.37 18.71C1.22 17.51 2.18 16.37 3.13 15.22C3.55 14.72 4.22 14.55 4.96 14.53C4.96 14.34 4.96 14.17 4.96 14C4.96 10.26 4.96 6.52 4.96 2.77C4.97 1 6.09 0 8.08 0C16.73 0 25.38 0 34.03 0C36.02 0 37.15 1 37.15 2.8C37.15 5.35 37.15 7.89 37.15 10.46C37.15 10.61 37.17 10.78 37.12 10.93C37.01 11.29 36.73 11.51 36.3 11.49C35.88 11.46 35.61 11.24 35.55 10.86C35.53 10.71 35.54 10.58 35.54 10.43C35.54 7.88 35.54 5.33 35.54 2.77C35.54 1.8 35.11 1.43 34.03 1.43C25.38 1.43 16.73 1.43 8.08 1.43C6.98 1.43 6.56 1.8 6.56 2.77C6.56 6.6 6.57 10.41 6.55 14.23C6.55 14.73 6.67 15.01 7.26 15.03C7.43 15.04 7.6 15.09 7.86 15.14C7.86 14.84 7.85 14.56 7.86 14.28C7.88 13.33 8.63 12.66 9.69 12.65C12.66 12.64 15.62 12.64 18.59 12.65C19.67 12.65 20.41 13.33 20.42 14.33C20.43 15.52 20.42 16.71 20.42 17.92C20.85 18.02 21.25 18.1 21.71 18.21C21.71 16.96 21.71 15.76 21.71 14.56C21.71 13.23 22.36 12.65 23.85 12.65C26.64 12.65 29.43 12.65 32.21 12.65C33.55 12.65 34.24 13.28 34.26 14.47C34.26 16.11 34.27 17.74 34.24 19.37C34.23 19.88 34.14 20.39 34.08 20.96C34.48 21.05 34.99 21.17 35.55 21.29C35.55 20.95 35.55 20.65 35.55 20.36C35.55 18.34 35.55 16.33 35.55 14.31C35.55 13.74 35.83 13.43 36.32 13.42C36.84 13.4 37.15 13.73 37.15 14.31C37.15 16.58 37.15 18.84 37.15 21.11C37.15 21.28 37.15 21.45 37.15 21.57C37.22 21.63 37.23 21.66 37.24 21.66C38.72 21.97 38.73 21.95 38.73 23.43C38.72 30.7 38.69 37.98 38.74 45.25C38.75 46.93 38.18 48.14 36.3 48.69C26.15 48.68 15.98 48.68 5.83 48.68ZM4.99 22.47C4.99 22.71 4.99 22.88 4.99 23.06C4.99 30.58 4.99 38.09 4.99 45.6C4.99 46.82 5.47 47.26 6.84 47.26C16.31 47.26 25.77 47.26 35.24 47.26C36.66 47.26 37.13 46.85 37.13 45.59C37.13 38.85 37.13 32.12 37.13 25.38C37.13 25.21 37.13 25.04 37.13 24.88C37.09 24.86 37.05 24.84 37.01 24.81C36.43 25.69 35.58 26.16 34.46 26.27C33.92 26.19 33.38 26.13 32.82 26.06C23.55 24.86 14.27 23.67 4.99 22.47ZM36.54 22.99C36.29 22.93 36.13 22.87 35.96 22.83C33.12 22.2 30.29 21.58 27.45 20.95C20.04 19.31 12.61 17.68 5.2 16.03C4.71 15.92 4.4 16.03 4.12 16.39C3.41 17.31 2.66 18.22 1.93 19.14C1.3 19.93 1.64 20.6 2.7 20.73C8.2 21.44 13.7 22.14 19.18 22.85C24.16 23.49 29.15 24.14 34.14 24.79C34.63 24.85 35.06 24.73 35.37 24.37C35.76 23.94 36.12 23.49 36.54 22.99ZM28 14.07C26.59 14.07 25.2 14.08 23.79 14.07C23.43 14.07 23.28 14.16 23.3 14.5C23.32 15.73 23.32 16.97 23.3 18.21C23.3 18.51 23.42 18.6 23.73 18.67C25.36 19.02 27 19.37 28.63 19.76C29.78 20.04 30.94 20.2 32.14 20.15C32.54 20.14 32.66 20.02 32.66 19.68C32.64 17.97 32.63 16.26 32.66 14.55C32.66 14.16 32.5 14.07 32.09 14.07C30.74 14.08 29.37 14.07 28 14.07ZM18.82 17.57C18.82 16.54 18.81 15.55 18.83 14.58C18.84 14.19 18.71 14.06 18.27 14.07C15.69 14.08 13.13 14.08 10.56 14.08C9.46 14.08 9.48 14.08 9.46 15.07C9.45 15.42 9.58 15.54 9.97 15.63C11.6 15.96 13.23 16.34 14.86 16.71C16.15 16.98 17.46 17.28 18.82 17.57Z" fill="#000000" fill-opacity="1.000000" fill-rule="nonzero"/>
	<path id="Vector" d="M28.23 11.92C26.91 11.92 25.59 11.92 24.27 11.92C23.06 11.92 22.41 11.24 22.41 9.99C22.41 8.06 22.41 6.14 22.41 4.21C22.41 2.99 23.07 2.3 24.25 2.3C26.91 2.3 29.55 2.3 32.21 2.3C33.38 2.3 34.05 2.99 34.06 4.21C34.08 6.15 34.08 8.1 34.06 10.04C34.06 11.22 33.38 11.91 32.23 11.92C30.9 11.94 29.56 11.92 28.23 11.92ZM28.19 3.84C26.92 3.84 25.65 3.85 24.38 3.83C23.98 3.82 23.87 3.95 23.87 4.36C23.9 6.21 23.89 8.05 23.87 9.9C23.87 10.27 23.98 10.39 24.35 10.39C26.94 10.38 29.54 10.38 32.13 10.39C32.48 10.39 32.58 10.27 32.58 9.92C32.57 8.06 32.57 6.2 32.58 4.34C32.58 3.96 32.46 3.83 32.1 3.84C30.79 3.85 29.49 3.84 28.19 3.84Z" fill="#000000" fill-opacity="1.000000" fill-rule="nonzero"/>
</svg>
