<svg width="51.000000" height="37.000000" viewBox="0 0 51 37" fill="none" xmlns="http://www.w3.org/2000/svg" xmlns:xlink="http://www.w3.org/1999/xlink">
	<desc>
			Created with Pixso.
	</desc>
	<defs/>
	<path id="Vector" d="M50.97 11.32C50.71 7.16 47.81 4.15 43.93 4.07C43.08 4.06 42.23 4.15 41.34 4.19C41.21 3.16 41.08 2.12 40.93 1.08C40.81 0.2 40.59 0 39.76 0C37.02 0 34.28 0 31.55 0C31.42 0 31.29 -0.01 31.16 0.01C30.7 0.09 30.41 0.37 30.4 0.89C30.4 1.4 30.68 1.69 31.14 1.78C31.3 1.81 31.47 1.8 31.64 1.8C34.01 1.8 36.37 1.8 38.73 1.8C38.93 1.8 39.13 1.8 39.36 1.8C39.48 2.98 39.6 4.1 39.72 5.24C31.69 5.25 23.65 5.25 15.62 5.26C14.98 5.25 14.35 5.25 13.73 5.24C10.47 5.24 7.24 5.24 3.94 5.24C4.05 4.11 4.17 2.99 4.29 1.84C7.45 1.84 10.56 1.84 13.73 1.84C14.4 1.85 15.08 1.85 15.76 1.86C22.13 1.78 26.58 1.74 26.98 1.76C27 1.76 27.19 1.78 27.43 1.72C27.63 1.68 27.83 1.63 27.97 1.45C28.14 1.24 28.13 0.98 28.13 0.88C28.12 0.41 27.86 0.1 27.41 0.02C27.24 -0.01 27.13 -0.01 26.91 0C26.62 0.02 26.33 0.02 26.04 0.05C26.04 0.05 25.75 0.07 24.63 0.07C4.82 0.08 3.85 0 3.85 0C3.72 -0.01 3.32 -0.04 3.03 0.23C2.86 0.39 2.76 0.66 2.71 1.07C2.61 1.82 2.52 2.57 2.44 3.32C1.86 8.67 1.66 14.02 2.48 19.36C3.09 23.29 4.15 27.02 7.22 29.88C6.86 29.88 6.66 29.88 6.46 29.88C4.65 29.88 2.84 29.87 1.04 29.88C0.24 29.88 -0.03 30.2 0 31.06C0.07 33.58 1.51 35.76 3.76 36.5C4.7 36.82 5.73 36.97 6.72 36.97C14.67 37.01 22.62 36.99 30.57 36.99C30.72 36.99 30.87 37.01 31.02 36.98C31.48 36.89 31.76 36.61 31.76 36.09C31.75 35.57 31.47 35.28 31.01 35.21C30.83 35.18 30.64 35.19 30.45 35.19C22.56 35.19 14.66 35.21 6.76 35.17C5.85 35.17 4.9 35 4.04 34.69C2.77 34.23 2.06 33.16 1.76 31.67C2.05 31.67 2.27 31.67 2.49 31.67C6.31 31.67 10.12 31.67 13.94 31.67C14.65 31.67 15.03 31.34 15.02 30.77C15.02 30.18 14.66 29.89 13.94 29.88C13.29 29.87 12.63 29.87 11.98 29.84C9.88 29.73 8.2 28.75 6.92 26.98C5.52 25.04 4.83 22.78 4.37 20.42C3.57 16.29 3.56 12.1 3.75 7.91C3.76 7.64 3.8 7.37 3.83 7.11C15.83 7.11 27.83 7.11 39.83 7.11C39.85 7.22 39.88 7.32 39.88 7.41C40.09 10.98 40.1 14.55 39.66 18.1C39.35 20.56 38.85 22.97 37.79 25.2C36.31 28.31 34.03 29.95 30.69 29.89C26.67 29.82 22.64 29.88 18.62 29.88C18.4 29.88 18.17 29.87 17.95 29.91C17.5 29.98 17.26 30.31 17.26 30.78C17.26 31.22 17.49 31.54 17.91 31.62C18.15 31.67 18.4 31.67 18.64 31.67C26.18 31.67 33.72 31.67 41.26 31.67C41.5 31.67 41.74 31.67 41.98 31.67C41.71 33.52 40.43 34.83 38.56 35.06C37.38 35.21 36.18 35.16 34.99 35.2C34.39 35.22 34.02 35.57 34.03 36.11C34.04 36.62 34.4 36.98 34.97 36.98C35.94 36.99 36.91 37.01 37.87 36.96C41.23 36.8 43.38 34.73 43.78 31.32C43.9 30.25 43.6 29.88 42.61 29.87C40.76 29.87 38.92 29.87 37.07 29.87C36.91 29.87 36.73 29.87 36.57 29.87C38.07 28.41 39.07 26.69 39.83 24.77C39.89 24.61 40.15 24.49 40.34 24.44C41.49 24.13 42.67 23.96 43.79 23.55C45.29 23.01 46.57 22.02 47.64 20.77C47.83 20.54 47.92 20.06 47.85 19.76C47.78 19.52 47.4 19.24 47.14 19.23C46.88 19.22 46.55 19.44 46.34 19.67C45.31 20.74 44.14 21.57 42.78 22.06C42.07 22.31 41.33 22.46 40.51 22.69C40.66 22.02 40.76 21.51 40.91 21.02C40.95 20.88 41.14 20.74 41.29 20.69C44.86 19.65 46.94 17.1 47.55 13.26C48.05 10.14 46.74 7.3 42.88 7.66C42.47 7.7 42.05 7.77 41.61 7.84C41.57 7.24 41.53 6.69 41.49 6.09C41.79 6.03 42.06 5.95 42.33 5.93C42.91 5.89 43.49 5.84 44.06 5.86C46.54 5.96 48.45 7.6 49.08 10.17C49.59 12.24 49.28 14.24 48.53 16.18C48.29 16.82 48.46 17.32 48.96 17.52C49.43 17.72 49.84 17.47 50.08 16.86C50.79 15.09 51.09 13.24 50.97 11.32ZM41.8 9.7C42.58 9.43 43.46 9.33 44.35 9.52C45.27 9.71 45.78 10.38 45.93 11.5C46.34 14.49 44.11 18.04 41.41 18.76C41.53 15.75 41.66 12.75 41.8 9.7Z" fill="#000000" fill-opacity="1.000000" fill-rule="nonzero"/>
</svg>
